HIERARCHY
ROOT root
{
	OFFSET 0.000000 0.000000 0.000000
	CHANNELS 6 Xposition Yposition Zposition Zrotation Yrotation Xrotation
	JOINT lhip
	{
		OFFSET 0.058581 -0.082280 -0.017664
		CHANNELS 3 Zrotation Yrotation Xrotation
		JOINT lknee
		{
			OFFSET 0.043451 -0.386469 0.008037
			CHANNELS 3 Zrotation Yrotation Xrotation
			JOINT lankle
			{
				OFFSET -0.014790 -0.426874 -0.037428
				CHANNELS 3 Zrotation Yrotation Xrotation
				JOINT ltoe
				{
					OFFSET 0.041054 -0.060286 0.122042
					CHANNELS 3 Zrotation Yrotation Xrotation
					End Site
					{
						OFFSET 0.000000 0.000000 0.000000
					}
				}
			}
		}
	}
	JOINT rhip
	{
		OFFSET -0.060310 -0.090513 -0.013543
		CHANNELS 3 Zrotation Yrotation Xrotation
		JOINT rknee
		{
			OFFSET -0.043257 -0.383688 -0.004843
			CHANNELS 3 Zrotation Yrotation Xrotation
			JOINT rankle
			{
				OFFSET 0.019056 -0.420046 -0.034562
				CHANNELS 3 Zrotation Yrotation Xrotation
				JOINT rtoe
				{
					OFFSET -0.034840 -0.062106 0.130323
					CHANNELS 3 Zrotation Yrotation Xrotation
					End Site
					{
						OFFSET 0.000000 0.000000 0.000000
					}
				}
			}
		}
	}
	JOINT lowerback
	{
		OFFSET 0.004439 0.124404 -0.038385
		CHANNELS 3 Zrotation Yrotation Xrotation
		JOINT upperback
		{
			OFFSET 0.004488 0.137956 0.026820
			CHANNELS 3 Zrotation Yrotation Xrotation
			JOINT chest
			{
				OFFSET -0.002265 0.056032 0.002855
				CHANNELS 3 Zrotation Yrotation Xrotation
				JOINT lowerneck
				{
					OFFSET -0.013390 0.211636 -0.033468
					CHANNELS 3 Zrotation Yrotation Xrotation
					JOINT upperneck
					{
						OFFSET 0.010113 0.088937 0.050410
						CHANNELS 3 Zrotation Yrotation Xrotation
						End Site
						{
							OFFSET 0.000000 0.000000 0.000000
						}
					}
				}
				JOINT lclavicle
				{
					OFFSET 0.071702 0.114000 -0.018898
					CHANNELS 3 Zrotation Yrotation Xrotation
					JOINT lshoulder
					{
						OFFSET 0.122921 0.045205 -0.019046
						CHANNELS 3 Zrotation Yrotation Xrotation
						JOINT lelbow
						{
							OFFSET 0.255332 -0.015649 -0.022946
							CHANNELS 3 Zrotation Yrotation Xrotation
							JOINT lwrist
							{
								OFFSET 0.265709 0.012698 -0.007375
								CHANNELS 3 Zrotation Yrotation Xrotation
								End Site
								{
									OFFSET 0.000000 0.000000 0.000000
								}
							}
						}
					}
				}
				JOINT rclavicle
				{
					OFFSET -0.082954 0.112472 -0.023707
					CHANNELS 3 Zrotation Yrotation Xrotation
					JOINT rshoulder
					{
						OFFSET -0.113228 0.046853 -0.008472
						CHANNELS 3 Zrotation Yrotation Xrotation
						JOINT relbow
						{
							OFFSET -0.260127 -0.014369 -0.031269
							CHANNELS 3 Zrotation Yrotation Xrotation
							JOINT rwrist
							{
								OFFSET -0.269108 0.006794 -0.006027
								CHANNELS 3 Zrotation Yrotation Xrotation
								End Site
								{
									OFFSET 0.000000 0.000000 0.000000
								}
							}
						}
					}
				}
			}
		}
	}
}
MOTION
Frames: 13
Frame Time: 0.033333
-0.030432 0.868482 0.981387 -178.352612 3.769607 82.991395 11.110391 0.464337 4.177058 -6.858139 -14.200813 13.244399 -1.106759 4.882711 -22.604223 0.000000 -0.000000 0.000000 1.614311 3.124614 -3.069132 2.143881 10.481625 20.225100 2.367021 0.472875 -19.518395 0.000000 -0.000000 0.000000 -3.400162 2.508962 15.388361 0.969415 1.252025 9.386997 0.688420 0.890131 4.247374 4.216385 -1.829629 7.898632 7.263435 -4.677521 -11.170528 -19.425680 10.711635 9.626940 -55.383376 14.208416 12.558618 -9.283347 -47.230334 32.146542 -7.755021 -13.374290 -20.436755 19.112418 -2.589735 7.343657 53.930225 -5.501032 11.063859 -3.193913 43.962438 16.792964 6.722824 7.949327 -7.522902 
-0.029207 0.872749 0.980954 -178.533206 4.033482 82.651152 11.366387 0.334913 4.847717 -6.726413 -14.434528 13.261380 -1.141367 5.241097 -22.857186 0.000000 -0.000000 0.000000 2.189698 3.298525 -2.502002 2.048486 10.755843 20.399667 2.301402 0.239072 -19.877807 0.000000 -0.000000 0.000000 -3.801338 2.539037 15.208936 0.854907 1.330185 9.215322 0.644953 0.851301 4.341691 4.266670 -1.572106 7.908993 7.232550 -4.640167 -10.609323 -19.299987 11.080073 9.525951 -55.449739 14.192917 12.360204 -9.081851 -47.189956 32.028234 -8.037065 -13.222940 -20.250757 19.019769 -3.219224 7.286660 54.324750 -6.234617 10.887078 -3.551332 43.131516 17.061781 7.791865 7.572564 -7.301826 
-0.027995 0.876701 0.980663 -178.851959 4.378835 82.386196 11.764398 0.092821 5.515677 -6.644416 -14.442468 13.118982 -1.308314 5.557152 -23.053059 0.000000 -0.000000 0.000000 2.781687 3.422155 -1.913344 1.960347 11.012924 20.245903 2.230391 0.208549 -20.078883 0.000000 -0.000000 0.000000 -4.279052 2.604715 14.871863 0.698189 1.418317 9.100482 0.620672 0.853903 4.365556 4.245912 -1.155852 7.734461 7.225009 -4.493688 -10.325329 -19.206277 11.304927 9.292136 -55.245795 13.878068 12.099110 -8.428183 -47.488095 31.055224 -7.671396 -13.066267 -20.050443 18.942531 -3.781206 7.294268 54.736830 -6.780141 10.737843 -3.901598 42.813423 16.857215 8.238409 7.399093 -7.719416 
-0.026818 0.879961 0.980507 -179.225116 4.824589 82.239581 12.317732 0.057805 6.127774 -6.517918 -14.425066 12.768443 -1.477343 5.715994 -23.168427 0.000000 -0.000000 0.000000 3.403069 3.451430 -1.410506 1.892364 11.241058 19.866323 2.183699 0.337899 -20.085401 0.000000 -0.000000 0.000000 -4.882521 2.649286 14.417914 0.533077 1.436186 9.084882 0.610217 0.860620 4.295970 4.347226 -0.666110 7.495164 7.327263 -4.242969 -10.229680 -19.126937 11.429398 9.040630 -54.853729 13.322443 11.704473 -7.318753 -48.293595 29.339739 -6.849345 -12.797717 -20.270055 18.865510 -4.126825 7.263215 55.204156 -7.116201 10.686325 -4.234267 42.942209 16.287050 8.010717 7.401584 -8.597486 
-0.025743 0.882328 0.980378 -179.602860 5.394281 82.133218 13.052712 0.234142 6.672922 -6.389229 -14.500503 12.337952 -1.659895 5.760548 -23.209385 0.000000 -0.000000 0.000000 4.085008 3.427734 -0.955247 1.846866 11.344801 19.364802 2.151090 0.568047 -19.955037 0.000000 -0.000000 0.000000 -5.581877 2.605143 14.089283 0.333573 1.380952 9.005899 0.632819 0.840727 4.144781 4.603810 -0.083264 7.374821 7.579960 -3.812453 -9.961950 -18.981664 11.458109 8.816969 -54.363924 12.674156 11.147806 -5.794166 -49.666722 26.968625 -6.030408 -12.372945 -20.733380 18.749687 -4.216565 7.222197 55.706705 -7.149534 10.705258 -4.511830 43.403320 15.769721 7.947062 7.432664 -9.649044 
-0.024921 0.883935 0.980193 -179.979504 6.060574 81.948726 13.898924 0.472406 7.142975 -6.312198 -14.637257 12.130931 -1.852846 5.726085 -23.345860 0.000000 -0.000000 0.000000 4.775740 3.325641 -0.416150 1.835155 11.297973 18.767530 2.141721 0.967761 -19.716838 0.000000 -0.000000 0.000000 -6.248908 2.522619 13.983756 0.102375 1.241445 8.921993 0.649873 0.857460 3.910915 4.862040 0.611595 7.507593 8.010537 -3.205313 -9.684469 -18.809925 11.206407 8.584632 -53.715717 11.950806 10.539970 -4.037281 -51.131420 24.231342 -5.077456 -11.976888 -21.066824 18.679123 -4.064902 7.199540 56.172711 -6.949365 10.639122 -4.875090 44.199105 15.247647 8.002159 7.468917 -10.653277 
-0.024462 0.884996 0.979846 179.492852 6.777398 81.692216 14.756550 0.556753 7.456184 -6.334409 -14.599092 12.378304 -2.036502 5.716947 -23.615237 0.000000 -0.000000 0.000000 5.459142 3.210862 0.196925 1.854913 11.269099 18.063685 2.171229 1.451947 -19.358574 0.000000 -0.000000 0.000000 -6.772325 2.559853 13.916085 -0.116371 1.165426 9.023639 0.635438 0.945479 3.642072 5.077004 1.392188 7.624892 8.445220 -2.596455 -9.557453 -18.687116 10.660443 8.315533 -52.952925 11.091231 9.953050 -1.936602 -52.453504 21.368772 -4.013335 -11.808263 -21.063141 18.631760 -3.724334 7.203532 56.673101 -6.632888 10.503659 -5.576632 45.273787 14.413936 7.700454 7.608211 -11.704773 
-0.024320 0.885440 0.979257 178.779633 7.517386 81.434861 15.560329 0.375129 7.495413 -6.453747 -14.253678 13.138655 -2.180046 5.817078 -23.997042 0.000000 -0.000000 0.000000 6.137919 3.137028 0.723173 1.914698 11.387070 17.397540 2.217273 1.966723 -18.973497 0.000000 -0.000000 0.000000 -7.163069 2.757413 13.884146 -0.303941 1.249801 9.124663 0.625699 1.050123 3.435178 5.300492 2.145209 7.504472 8.810123 -2.081917 -9.324632 -18.573912 10.159053 7.996652 -52.385518 10.097845 9.237801 0.816349 -53.747462 18.022806 -2.970115 -11.710592 -20.829254 18.598508 -3.269618 7.171893 57.111789 -6.190132 10.433527 -6.446771 46.339795 13.512064 7.109068 7.803649 -12.509342 
-0.024526 0.885452 0.978599 177.921653 8.214561 81.208013 16.253506 0.149420 7.398006 -6.585569 -13.750930 14.097772 -2.256181 6.017185 -24.463692 0.000000 -0.000000 0.000000 6.706016 3.151035 1.067942 2.053206 11.553780 16.907611 2.374012 2.603698 -18.633931 0.000000 -0.000000 0.000000 -7.454944 3.024374 13.902298 -0.463912 1.506475 9.109681 0.615695 1.223158 3.301327 5.556675 2.826080 7.180191 9.184128 -1.772311 -8.994026 -18.417068 9.888425 7.573512 -52.031905 9.133315 8.518121 3.563170 -55.084018 14.747621 -1.719900 -11.599728 -20.424340 18.569913 -2.859782 7.067035 57.465218 -5.664900 10.379335 -7.322416 47.356322 12.651225 6.433119 7.991070 -13.074699 
-0.025222 0.885360 0.978083 177.061235 8.808259 81.062124 16.820204 0.115161 7.357523 -6.631643 -13.278080 14.776584 -2.293987 6.163652 -24.865130 0.000000 -0.000000 0.000000 7.102765 3.195016 1.274342 2.204753 11.675100 16.465619 2.622384 3.306030 -18.318602 0.000000 -0.000000 0.000000 -7.621222 3.288479 13.876912 -0.571193 1.822142 9.132055 0.590247 1.440361 3.169063 5.818689 3.439318 6.751570 9.451683 -1.670060 -8.804532 -18.312876 9.773763 7.183755 -51.705085 8.428601 8.043002 5.494742 -56.492055 12.536309 -0.749932 -11.692949 -19.875833 18.600368 -2.526424 6.977676 57.710718 -5.071029 10.302569 -8.209321 48.285234 11.530562 5.534153 8.166140 -13.660226 
-0.026534 0.885172 0.977803 176.405819 9.213613 81.036001 17.155847 0.115554 7.345350 -6.612996 -12.826117 15.062098 -2.295340 6.250214 -25.072538 0.000000 -0.000000 0.000000 7.315155 3.297166 1.357011 2.284935 11.744975 16.059145 2.859402 3.818179 -18.075340 0.000000 -0.000000 0.000000 -7.719506 3.476696 13.828747 -0.609092 2.072340 9.203745 0.565770 1.608794 3.078292 6.054748 3.824246 6.331380 9.496286 -1.694464 -8.894273 -18.230018 9.793167 6.951455 -51.515975 8.063368 7.946842 6.319287 -57.827582 11.594965 -0.231811 -11.877677 -19.935295 18.662661 -2.267952 6.922669 57.868400 -4.420380 10.356746 -8.988960 48.973110 10.276844 4.201920 8.280712 -14.119600 
-0.028317 0.884719 0.977933 176.190106 9.376368 81.153336 17.190055 0.082899 7.155637 -6.587153 -12.543669 15.182344 -2.224576 6.285409 -25.107257 0.000000 -0.000000 0.000000 7.353554 3.421207 1.263922 2.240953 11.712598 15.807700 2.986900 3.964015 -17.927823 0.000000 -0.000000 0.000000 -7.793883 3.547706 13.919649 -0.603058 2.167962 9.142556 0.569846 1.701034 3.111739 6.164931 3.846947 5.953395 9.486465 -1.934600 -9.144461 -18.089578 9.834969 6.890488 -51.619326 7.926052 8.152878 5.858538 -58.656352 11.853227 0.339506 -11.960799 -20.756840 18.617369 -2.148797 6.904530 58.109227 -3.974537 10.555304 -9.419391 49.570897 9.256882 2.214078 8.342941 -14.450732 
-0.030407 0.884161 0.978359 176.389928 9.292659 81.410655 16.933352 0.030802 6.754369 -6.583415 -12.478332 15.256391 -2.091990 6.266378 -25.047992 0.000000 -0.000000 0.000000 7.212941 3.530643 0.985390 2.087290 11.600707 15.775651 3.044248 3.789097 -17.852303 0.000000 -0.000000 0.000000 -7.773260 3.558606 14.126348 -0.596271 2.154440 8.996227 0.552809 1.716604 3.232841 6.111935 3.476457 5.598684 9.633862 -2.473217 -9.480436 -17.969202 9.805322 6.979097 -51.971934 7.938399 8.509701 4.605289 -58.794428 13.066030 0.726610 -11.988354 -21.561939 18.467050 -2.186789 6.927250 58.417252 -4.071768 10.834253 -9.153945 50.325817 9.071562 0.357931 8.431858 -14.819157 
